#!OML:ASF F:\VICON\USERDATA\INSTALL\rory3\rory3.ASF
:FULLY-SPECIFIED
:DEGREES
1001
root 4.44513 17.7627 -7.79894 -2.33237 -69.623 16.8541
lowerback 13.6549 3.95298 1.2851
upperback 7.62102 4.95635 10.5367
thorax -0.391347 2.10305 9.86247
lowerneck -5.06164 -12.1218 -9.44496
upperneck 31.9782 -18.7279 4.87231
head 12.8901 -8.97462 0.939591
rclavicle 2.22639e-014 2.8625e-014
rhumerus 6.51053 -9.94041 -94.7008
rradius 32.2143
rwrist -15.6843
rhand -18.0843 -19.5787
rfingers 7.12502
rthumb 8.18899 -49.4
lclavicle 2.22639e-014 2.8625e-014
lhumerus -31.605 -32.0797 101.301
lradius 76.8506
lwrist 72.2301
lhand -20.53 52.7948
lfingers 7.12502
lthumb 5.82809 -277.305
rfemur -30.4226 -9.88626 12.3477
rtibia 48.1912
rfoot -21.4066 5.70809
rtoes -12.2336
lfemur -27.8721 1.33694 -29.4219
ltibia 26.6007
lfoot -9.48252 -7.67793
ltoes -12.0959
1002
root 4.48471 17.7634 -7.8081 -1.89213 -69.8469 16.6082
lowerback 13.3212 3.60075 1.18208
upperback 7.70925 4.44458 10.3921
thorax -0.0301308 1.83593 9.86104
lowerneck -5.10586 -11.654 -9.87357
upperneck 32.0779 -18.056 5.07751
head 12.9519 -8.71512 1.17578
rclavicle 1.59028e-015 1.90833e-014
rhumerus 6.72321 -9.70076 -93.9308
rradius 32.3089
rwrist -16.181
rhand -18.4014 -19.4767
rfingers 7.12502
rthumb 7.88291 -49.3098
lclavicle 1.59028e-015 1.90833e-014
lhumerus -30.5998 -31.8174 101.36
lradius 76.5
lwrist 71.6366
lhand -20.1842 53.4269
lfingers 7.12502
lthumb 6.16199 -276.683
rfemur -30.3649 -9.80636 12.8996
rtibia 47.6685
rfoot -21.034 6.30148
rtoes -11.264
lfemur -28.3872 1.31825 -29.2847
ltibia 26.8661
lfoot -9.68262 -7.57715
ltoes -13.9432
1003
root 4.52425 17.7625 -7.82002 -1.22504 -70.1377 16.0677
lowerback 13.1828 3.45404 1.21123
upperback 7.7253 4.24504 10.1806
thorax 0.110343 1.73895 9.64095
lowerneck -5.11368 -11.4131 -9.78699
upperneck 32.1176 -17.7671 5.21546
head 12.9477 -8.57144 1.25901
rclavicle 4.45278e-014 9.85972e-014
rhumerus 6.9758 -10.4819 -93.2849
rradius 32.3856
rwrist -16.3959
rhand -18.7901 -19.4798
rfingers 7.12502
rthumb 7.50779 -49.3265
lclavicle 4.45278e-014 9.85972e-014
lhumerus -29.781 -32.4614 101.432
lradius 76.2618
lwrist 71.5079
lhand -14.9888 53.4976
lfingers 7.12502
lthumb 11.1755 -276.82
rfemur -30.2528 -9.57201 13.584
rtibia 47.1046
rfoot -20.6303 6.34191
rtoes -10.9792
lfemur -28.8633 1.45314 -29.0425
ltibia 27.108
lfoot -9.72904 -7.49535
ltoes -14.3331
1004
root 4.5608 17.76 -7.83037 -0.562011 -70.4117 15.4894
lowerback 13.0169 3.30597 1.23732
upperback 7.76925 4.03724 10.0012
thorax 0.2929 1.63508 9.46213
lowerneck -5.13873 -11.1829 -9.7943
upperneck 32.1633 -17.4839 5.36841
head 12.9622 -8.43765 1.35884
rclavicle 5.56597e-014 -2.54444e-014
rhumerus 7.28137 -11.2672 -92.5523
rradius 32.3766
rwrist -16.4254
rhand -19.3392 -19.5444
rfingers 7.12502
rthumb 6.9777 -49.4094
lclavicle 5.56597e-014 -2.54444e-014
lhumerus -28.9636 -33.2831 101.545
lradius 76.0938
lwrist 71.5766
lhand -14.2938 53.7501
lfingers 7.12502
lthumb 11.8458 -276.605
rfemur -30.0604 -9.39598 14.2645
rtibia 46.4914
rfoot -19.9629 6.22684
rtoes -9.59591
lfemur -29.278 1.45323 -28.7252
ltibia 27.3436
lfoot -9.65973 -7.38777
ltoes -13.9027
1005
root 4.59591 17.7575 -7.84231 -0.339321 -70.6695 15.3945
lowerback 12.8218 3.15395 0.990507
upperback 7.79061 3.80171 9.85264
thorax 0.450509 1.51147 9.48273
lowerneck -5.16338 -10.9186 -9.79847
upperneck 32.2467 -17.0998 5.34029
head 12.9614 -8.28071 1.40671
rclavicle 8.5875e-014 3.18055e-014
rhumerus 7.52125 -11.9906 -91.6658
rradius 32.3496
rwrist -16.5228
rhand -19.8478 -19.4122
rfingers 7.12502
rthumb 6.48673 -49.2929
lclavicle 8.5875e-014 3.18055e-014
lhumerus -28.1424 -34.0472 101.829
lradius 75.8743
lwrist 71.5603
lhand -13.9851 53.7163
lfingers 7.12502
lthumb 12.1434 -276.656
rfemur -29.8744 -9.34146 14.7539
rtibia 45.8376
rfoot -19.0674 6.07827
rtoes -5.17584
lfemur -29.6799 1.42396 -28.581
ltibia 27.5654
lfoot -9.62525 -7.34447
ltoes -13.186
1006
root 4.63142 17.7551 -7.85807 0.0150429 -70.9458 15.2027
lowerback 12.6296 3.02889 0.707927
upperback 7.78083 3.60494 9.70987
thorax 0.56553 1.40821 9.5231
lowerneck -5.24035 -10.6655 -9.74612
upperneck 32.383 -16.7472 5.31405
head 12.9912 -8.12833 1.43715
rclavicle -5.56597e-014 -3.18055e-015
rhumerus 7.73308 -12.873 -90.7809
rradius 32.3682
rwrist -16.7137
rhand -19.8709 -19.3734
rfingers 7.12502
rthumb 6.46449 -49.2548
lclavicle -5.56597e-014 -3.18055e-015
lhumerus -27.3311 -34.9757 102.083
lradius 75.6789
lwrist 71.4601
lhand -13.6343 53.7815
lfingers 7.12502
lthumb 12.4817 -276.611
rfemur -29.7397 -9.16581 15.2841
rtibia 45.1269
rfoot -18.5097 5.6486
rtoes 0.95402
lfemur -30.1005 1.52118 -28.4417
ltibia 27.7441
lfoot -9.61171 -7.34852
ltoes -11.8168
1007
root 4.66682 17.7514 -7.87306 0.524453 -71.1958 14.788
lowerback 12.5115 2.92879 0.612301
upperback 7.77853 3.46324 9.50864
thorax 0.654052 1.33966 9.37628
lowerneck -5.37766 -10.4711 -9.58693
upperneck 32.5904 -16.5211 5.33827
head 13.0711 -8.0088 1.44525
rclavicle -7.4743e-014 -1.11319e-013
rhumerus 7.90233 -13.8853 -89.8712
rradius 32.4517
rwrist -17.0262
rhand -19.8234 -19.4461
rfingers 7.12502
rthumb 6.51032 -49.326
lclavicle -7.4743e-014 -1.11319e-013
lhumerus -26.5606 -36.237 102.196
lradius 75.595
lwrist 71.4835
lhand -13.6538 54.0636
lfingers 7.12502
lthumb 12.4629 -276.328
rfemur -29.5413 -8.94326 15.8569
rtibia 44.3342
rfoot -18.78 4.76835
rtoes 4.29104
lfemur -30.4326 1.38295 -28.1218
ltibia 27.8949
lfoot -9.2683 -7.1103
ltoes -8.19709
1008
root 4.70036 17.7509 -7.88567 1.0721 -71.4463 14.3127
lowerback 12.4219 2.82285 0.554556
upperback 7.73495 3.32301 9.34522
thorax 0.682776 1.27418 9.24716
lowerneck -5.33001 -10.2812 -9.57586
upperneck 32.6758 -16.2816 5.38076
head 13.0771 -7.907 1.49878
rclavicle -4.13472e-014 -4.45278e-014
rhumerus 7.87288 -14.6931 -88.7382
rradius 32.62
rwrist -17.7015
rhand -20.4417 -19.5412
rfingers 7.12502
rthumb 5.91336 -49.4387
lclavicle -4.13472e-014 -4.45278e-014
lhumerus -25.8527 -37.475 102.41
lradius 75.5483
lwrist 71.6934
lhand -13.7168 54.5606
lfingers 7.12502
lthumb 12.4022 -275.827
rfemur -29.3117 -8.81964 16.4205
rtibia 43.43
rfoot -19.9149 3.03348
rtoes 2.56827
lfemur -30.732 1.15049 -27.7408
ltibia 28.0473
lfoot -8.97759 -6.78214
ltoes -5.14148
1009
root 4.73408 17.7502 -7.90127 1.89763 -71.6302 13.6888
lowerback 12.203 2.67744 0.49047
upperback 7.65747 3.1277 9.22516
thorax 0.751181 1.18036 9.18057
lowerneck -5.16897 -10.0579 -9.61329
upperneck 32.5742 -15.9924 5.51387
head 12.9883 -7.78564 1.6116
rclavicle 4.77083e-014 7.63333e-014
rhumerus 7.85646 -15.4673 -87.5692
rradius 32.7719
rwrist -18.1967
rhand -20.8103 -19.8507
rfingers 7.12502
rthumb 5.55746 -49.7578
lclavicle 4.77083e-014 7.63333e-014
lhumerus -25.049 -38.7673 102.61
lradius 75.5204
lwrist 71.8743
lhand -13.7712 54.9159
lfingers 7.12502
lthumb 12.3498 -275.469
rfemur -29.2192 -8.58887 17.0047
rtibia 42.4177
rfoot -21.3081 0.567481
rtoes -0.447513
lfemur -31.2014 1.04284 -27.3691
ltibia 28.1991
lfoot -8.89853 -6.70636
ltoes -4.40062
1010
root 4.76838 17.7479 -7.91963 2.74109 -71.7274 12.9238
lowerback 12.1171 2.49832 0.480017
upperback 7.64233 2.889 9.11767
thorax 0.823054 1.06206 9.09971
lowerneck -5.24219 -9.81299 -9.58237
upperneck 32.6052 -15.6723 5.61907
head 12.9913 -7.63578 1.69101
rclavicle -2.8625e-014 -3.49861e-014
rhumerus 7.97497 -16.4178 -86.5226
rradius 32.8299
rwrist -18.3202
rhand -20.9206 -20.0909
rfingers 7.12502
rthumb 5.45096 -50.0008
lclavicle -2.8625e-014 -3.49861e-014
lhumerus -24.153 -40.2339 102.664
lradius 75.5649
lwrist 71.7662
lhand -13.9922 54.8078
lfingers 7.12502
lthumb 12.1366 -275.564
rfemur -29.0182 -8.28673 17.555
rtibia 41.3401
rfoot -22.1754 -1.17311
rtoes -0.806832
lfemur -31.547 1.05633 -27.0299
ltibia 28.3555
lfoot -9.03367 -6.79517
ltoes -6.58997
1011
root 4.79988 17.7477 -7.93592 3.462 -71.881 12.2454
lowerback 12.0528 2.33004 0.456232
upperback 7.64255 2.66257 9.00065
thorax 0.89667 0.949131 9.01368
lowerneck -5.45415 -9.56063 -9.58679
upperneck 32.8314 -15.3196 5.61261
head 13.0962 -7.48189 1.72778
rclavicle 5.725e-014 9.54166e-014
rhumerus 8.09613 -17.3717 -85.4603
rradius 32.8385
rwrist -18.5689
rhand -21.4566 -20.0851
rfingers 7.12502
rthumb 4.93343 -50.0077
lclavicle 5.725e-014 9.54166e-014
lhumerus -23.2737 -41.6342 102.656
lradius 75.6582
lwrist 71.4733
lhand -13.8905 54.6127
lfingers 7.12502
lthumb 12.2347 -275.765
rfemur -28.8066 -7.7558 17.9742
rtibia 40.2364
rfoot -22.4726 -1.61721
rtoes 2.38524
lfemur -31.8356 1.04464 -26.7322
ltibia 28.5269
lfoot -9.33178 -6.74192
ltoes -10.4502
1012
root 4.82954 17.7478 -7.95142 4.21036 -72.121 11.7361
lowerback 11.7552 2.1908 0.345114
upperback 7.57903 2.46717 8.87744
thorax 1.01977 0.85277 8.97075
lowerneck -5.49538 -9.30382 -9.65356
upperneck 32.9638 -14.9514 5.60707
head 13.1299 -7.33625 1.78897
rclavicle 1.11319e-014 3.49861e-014
rhumerus 8.14098 -18.4228 -84.3531
rradius 32.8626
rwrist -18.9377
rhand -21.9449 -20.1412
rfingers 7.12502
rthumb 4.46201 -50.0742
lclavicle 1.11319e-014 3.49861e-014
lhumerus -22.418 -43.0385 102.643
lradius 75.7812
lwrist 71.175
lhand -13.4365 54.6385
lfingers 7.12502
lthumb 12.6724 -275.766
rfemur -28.855 -7.15897 18.334
rtibia 39.2421
rfoot -22.6028 -1.90495
rtoes 5.1336
lfemur -32.3113 1.11429 -26.4804
ltibia 28.6594
lfoot -9.3943 -6.71933
ltoes -11.8165
1013
root 4.84287 17.7463 -7.93604 5.12729 -72.5053 10.8756
lowerback 11.2802 2.0179 0.709634
upperback 7.65932 2.23689 8.71623
thorax 1.41636 0.742908 8.61577
lowerneck -5.50061 -9.03012 -9.82082
upperneck 33.0169 -14.5877 5.76966
head 13.1474 -7.18729 1.9325
rclavicle 1.59028e-014 -4.77083e-014
rhumerus 8.21409 -19.6737 -83.3688
rradius 32.9468
rwrist -19.0036
rhand -22.1674 -20.4288
rfingers 7.12502
rthumb 4.24709 -50.3662
lclavicle 1.59028e-014 -4.77083e-014
lhumerus -21.4594 -44.3818 102.57
lradius 75.9004
lwrist 70.7325
lhand -12.6126 54.5353
lfingers 7.12502
lthumb 13.4666 -275.92
rfemur -28.6801 -6.60314 18.5758
rtibia 38.4319
rfoot -22.8492 -2.87286
rtoes 3.03462
lfemur -32.4946 0.278214 -25.9169
ltibia 28.7654
lfoot -9.23864 -5.57869
ltoes -11.6997
1014
root 4.8862 17.7528 -7.97782 5.58857 -72.6791 10.62
lowerback 11.2826 1.90079 0.278503
upperback 7.59279 2.05976 8.63827
thorax 1.35771 0.646609 8.80095
lowerneck -5.49976 -8.77723 -9.80643
upperneck 32.9434 -14.2242 5.82125
head 13.0798 -7.02976 2.00665
rclavicle 4.77083e-015 6.36111e-014
rhumerus 8.39442 -21.0285 -82.5226
rradius 33.0036
rwrist -18.7463
rhand -22.155 -20.6348
rfingers 7.12502
rthumb 4.25905 -50.572
lclavicle 4.77083e-015 6.36111e-014
lhumerus -20.4076 -45.4424 102.391
lradius 75.8983
lwrist 69.7623
lhand -11.3226 54.3389
lfingers 7.12502
lthumb 14.7097 -276.203
rfemur -28.6659 -5.72874 18.7496
rtibia 37.8799
rfoot -23.1415 -4.48561
rtoes -1.00281
lfemur -32.9479 0.618835 -25.7079
ltibia 28.8374
lfoot -8.91581 -5.9501
ltoes -9.90713
1015
root 4.93292 17.7593 -8.01457 6.14218 -72.9089 10.3157
lowerback 11.3027 1.77126 -0.0609679
upperback 7.49341 1.87764 8.53695
thorax 1.26096 0.553811 8.90632
lowerneck -5.55306 -8.49994 -9.7349
upperneck 32.9571 -13.8193 5.79295
head 13.0444 -6.85492 2.04328
rclavicle 4.77083e-015 -2.06736e-014
rhumerus 8.60941 -22.3291 -81.6794
rradius 33.0091
rwrist -18.6687
rhand -22.3348 -20.7311
rfingers 7.12502
rthumb 4.08543 -50.6717
lclavicle 4.77083e-015 -2.06736e-014
lhumerus -19.4017 -46.4464 102.162
lradius 75.971
lwrist 69.0837
lhand -11.1461 54.2379
lfingers 7.12502
lthumb 14.8797 -276.316
rfemur -28.8276 -4.78837 18.8624
rtibia 37.5526
rfoot -23.048 -5.24038
rtoes -2.75831
lfemur -33.4563 0.620411 -25.3906
ltibia 28.8916
lfoot -8.37243 -5.85236
ltoes -6.2993
